<?xml version="1.0" encoding="utf-8"?>
<!-- Generator: Adobe Illustrator 17.0.0, SVG Export Plug-In . SVG Version: 6.00 Build 0)  -->
<!DOCTYPE svg PUBLIC "-//W3C//DTD SVG 1.1//EN" "http://www.w3.org/Graphics/SVG/1.1/DTD/svg11.dtd">
<svg version="1.1" id="Layer_1" xmlns="http://www.w3.org/2000/svg" xmlns:xlink="http://www.w3.org/1999/xlink" x="0px" y="0px"
	 width="512px" height="512px" viewBox="0 0 512 512" enable-background="new 0 0 512 512" xml:space="preserve">
<g>
	<path fill="#D1D1D1" d="M343.721,254.53c0,0-40.498-15.37-30.429-9.01c-29.485-6.333-95.08-7.314-122.843,5.308
		c-5.86,2.478-27.801,24.75-29.49,26.637c-38.733,67.933,85.444,230.825,85.444,230.825h25.599l43.892-45.334
		c34.483-41.353,45.27-104.52,51.4-153.355C370.978,309.601,343.721,254.53,343.721,254.53z"/>
	<path fill="#FFDC83" d="M318.769,29.284c-5.406-0.318-0.954-14.628-23.85-19.716s-76.001-12.402-98.896,3.816
		s-27.984,46.745-26.076,66.143c1.908,19.398,6.678,43.247,6.678,45.791s-20.458,9.646,12.508,58.723c0,0,8.3,15.582,20.919,32.801
		l1.021,23.919l47.628,47.934l50.484-41.641v-32.825c6.355-9.161,12.445-19.993,16.897-32.307c0.954-1.59,25.44-28.302,12.72-50.243
		c-0.358-2.252-3.498-8.904-3.498-8.904s10.494-19.398,11.766-29.256C348.342,83.661,356.928,32.146,318.769,29.284z"/>
	<path d="M182.18,140.276c0,0-8.132-69.535,33.382-54.271c8.56,5.088,41.514,30.104,84.312,0.848
		c1.284-1.696,34.666-10.176,31.67,53.423c3.852-0.848,12.534-33.034,14.291-39.942s16.737-66.056-26.81-71.144
		c-2.966-2.832-10.641-28.313-48.255-25.85C233.656,1.513,167.55-3.172,168.639,66.003s7.549,50.543,7.549,62.62
		s3.424,11.653,3.424,11.653H182.18z"/>
	<path fill="#F9F9F9" d="M259.18,160.521"/>
	<path d="M394.228,270.909c24.188,5.586,45.194,21.721,52.335,35.887c13.553,26.882,16.96,73.351,30.104,116.598
		c2.544,50.031-34.767,27.56-59.783,45.791c-25.016,18.232-65.45,37.145-154.912,40.113c-89.463,2.968-93.972-29.937-138.491-33.753
		s-95.822-33.071-87.343-42.823s22.896-63.175,26.712-90.735c3.816-27.56,10.632-48.431,22.896-58.087
		c20.542-16.174,104.302-32.888,104.302-32.888s-43.989,63.627-20.457,98.925s49.086,108.128,69.641,141.871
		c5.79,9.505,24.168,29.528,44.519-0.152c16.536-31.375,82.195-157.243,73.395-188.155c-1.876-6.588-25.25-53.335-25.25-53.335"/>
	<path fill="#BAB9B9" d="M214.499,325.707c0,0,39.32-79.173,88.67,0c4.615-13.136,20.218-74.885,6.016-94.921
		c-2.13,4.462-50.484,57.908-50.484,57.908s-25.289-30.031-48.054-57.908C207.097,237.379,195.771,264.286,214.499,325.707z"/>
	<g>
		<polygon points="271.358,331.106 247.666,331.106 237.019,470.465 259.512,501.907 282.005,470.465 		"/>
		<polygon points="247.878,326.512 240.688,304.383 259.512,292.69 278.336,304.383 271.146,326.512 		"/>
		<polygon fill="#F9F9F9" points="273.887,364.212 243.973,379.437 243.189,389.706 274.602,373.571 		"/>
		<polygon fill="#F9F9F9" points="277.659,413.587 239.9,432.76 238.948,445.218 278.545,425.181 		"/>
	</g>
</g>
</svg>
