<?xml version="1.0" encoding="utf-8"?>
<!-- Generator: Adobe Illustrator 17.0.0, SVG Export Plug-In . SVG Version: 6.00 Build 0)  -->
<!DOCTYPE svg PUBLIC "-//W3C//DTD SVG 1.1//EN" "http://www.w3.org/Graphics/SVG/1.1/DTD/svg11.dtd">
<svg version="1.1" id="Layer_1" xmlns="http://www.w3.org/2000/svg" xmlns:xlink="http://www.w3.org/1999/xlink" x="0px" y="0px"
	 width="512px" height="512px" viewBox="0 0 512 512" enable-background="new 0 0 512 512" xml:space="preserve">
<g>
	<defs>
		<circle id="SVGID_1_" cx="256" cy="256" r="250.377"/>
	</defs>
	<use xlink:href="#SVGID_1_"  overflow="visible" fill="#8AA93D"/>
	<clipPath id="SVGID_2_">
		<use xlink:href="#SVGID_1_"  overflow="visible"/>
	</clipPath>
	<polygon opacity="0.2" clip-path="url(#SVGID_2_)" fill="#010101" points="337.38,110.574 747.496,520.69 523.378,765.593 
		106.114,348.329 145.215,286.409 168.355,152.713 230.061,115.861 301.193,117.575 	"/>
	<path clip-path="url(#SVGID_2_)" fill="#F7D8B3" d="M174.223,226.179v140.319C72.141,372.627,48.261,266.226,130.7,234.673
		c0.021-44.901,11.148-80.299,29.537-105.784c19.828-27.48,47.781-43.153,79.436-46.67c3.476-0.391,7.137-0.617,11.004-0.699
		c7.816-0.144,15.241,0.206,22.173,1.11c30.647,4.011,57.448,17.936,77.008,43.256c18.943,24.497,30.544,59.258,31.326,105.393
		c0.041,1.193,0.041,2.386,0.041,3.558c81.842,31.82,57.818,137.747-44.037,131.618V226.137c1.851,0.103,3.661,0.226,5.471,0.37
		c-1.337-32.868-9.4-57.037-22.152-73.512c-12.835-16.64-31.038-25.854-52.141-28.631c-5.759-0.741-11.457-1.049-17.052-0.967
		c-2.489,0.062-5.101,0.247-7.837,0.535c-21.227,2.365-39.862,12.732-52.964,30.874c-12.259,16.949-20.013,40.87-21.247,71.64
		C170.911,226.384,172.557,226.281,174.223,226.179z"/>
</g>
</svg>
